<svg id="design" xmlns="http://www.w3.org/2000/svg" xmlns:xlink="http://www.w3.org/1999/xlink" width="62.70074mm" height="51.29406mm" viewBox="0 0 177.73438 145.40049">
  <defs>
    <linearGradient id="linear-gradient" x1="-3.66885" y1="83.41989" x2="182.26131" y2="57.28911" gradientUnits="userSpaceOnUse">
      <stop offset="0" stop-color="#083445"/>
      <stop offset="0.07426" stop-color="#035373"/>
      <stop offset="0.10593" stop-color="#025a7e"/>
      <stop offset="0.15476" stop-color="#005f86"/>
      <stop offset="0.23033" stop-color="#006189"/>
      <stop offset="0.27652" stop-color="#086189"/>
      <stop offset="0.3485" stop-color="#1e638b"/>
      <stop offset="0.43727" stop-color="#42658d"/>
      <stop offset="0.53935" stop-color="#746890"/>
      <stop offset="0.64862" stop-color="#b26b93"/>
      <stop offset="1" stop-color="#ee9393"/>
    </linearGradient>
    <clipPath id="clip-path" transform="translate(1.23438 -0.09951)">
      <path d="M87.409,45.2463,77.3248,29.20331a2.36957,2.36957,0,0,0-4.12531,0L63.11527,45.2463a18.37283,18.37283,0,0,0-2.521,9.16742V89.47908a2.54339,2.54339,0,0,0,2.521,2.521H87.17975a2.54341,2.54341,0,0,0,2.52112-2.521V54.41372A16.10484,16.10484,0,0,0,87.409,45.2463ZM67.24058,47.99655l6.188-10.08422H76.8664l6.188,10.08422a21.28779,21.28779,0,0,1,1.14593,2.29186H66.09465A10.71135,10.71135,0,0,1,67.24058,47.99655Zm-1.83346,7.1047h5.57381a13.305,13.305,0,0,0-.0733,1.37505V86.95809H65.40712ZM72.275,86.95809c.001-.08043.00769-.14687.00769-.22927V56.70557a11.52731,11.52731,0,0,0-.11652-1.60432H77.8565a13.30224,13.30224,0,0,0-.0733,1.37505V86.95809Zm12.84216,0h-5.9666c.001-.08043.0077-.14687.0077-.22927V56.70557a11.52571,11.52571,0,0,0-.11653-1.60432h6.07543Z" fill="none"/>
    </clipPath>
    <linearGradient id="linear-gradient-2" x1="-8.27057" y1="86.55231" x2="186.00495" y2="59.24867" xlink:href="#linear-gradient"/>
    <clipPath id="clip-path-2" transform="translate(1.23438 -0.09951)">
      <path d="M119.31972,83.05981A88.55109,88.55109,0,0,0,116.05721,59.685a2.98754,2.98754,0,0,0-.30327-.62165,10.76731,10.76731,0,0,0,3.51179-7.85825c0-8.02149-9.39656-20.62669-10.31335-22.00175a3.14926,3.14926,0,0,0-1.83346-1.14593h-.22913a2.0845,2.0845,0,0,0-1.8336.91666c-.91665,1.3752-10.31335,14.20953-10.31335,22.00189a10.78611,10.78611,0,0,0,4.813,8.93816L97.9515,64.4978A64.84814,64.84814,0,0,0,94.74284,84.437V89.25a2.48928,2.48928,0,0,0,1.09166,2.01139,1.84892,1.84892,0,0,0,1.2002.50959h20.16844a2.16533,2.16533,0,0,0,2.29185-2.29185v-.4584ZM107.11878,77.103h-6.87543a63.47778,63.47778,0,0,1,2.521-11.00088l1.14593-3.66691h3.20865l.01007-.001c-.00154.07946-.01021.149-.01021.23011V77.103Zm1.34442-14.79424a12.796,12.796,0,0,0,2.82831-.60528A71.98755,71.98755,0,0,1,114.002,77.103h-5.5082V63.12274C108.49384,62.837,108.47775,62.57356,108.4632,62.30876Zm-1.34428-27.60508c2.97938,4.58371,7.334,12.14694,7.334,16.27225,0,3.43779-3.20866,6.188-7.10484,6.41717h-.22913c-4.12531,0-7.334-2.75025-7.334-6.41717C100.47248,46.163,104.13954,39.28739,107.11892,34.70368ZM99.785,87.18722V81.916h7.33383v5.27124Zm14.43867,0h-5.72978V81.916H114.187c.005.38245.03665.76349.03665,1.14593Z" fill="none"/>
    </clipPath>
  </defs>
  <title>design-large</title>
  <path d="M172.5,111.74162a7.43544,7.43544,0,0,1-7.50777,7.31579H11.00777A7.43545,7.43545,0,0,1,3.5,111.74162V10.50329A7.43545,7.43545,0,0,1,11.00777,3.1875h153.982a7.43545,7.43545,0,0,1,7.50778,7.31579V111.74162ZM71.578,119.02083,54.37018,140.66337M104.422,119.02083l17.20781,21.64254M41.07641,142.1875h93.84718M6.04029,108.333H170.8985" transform="translate(1.23438 -0.09951)" fill="none" stroke-linecap="round" stroke-linejoin="round" stroke-width="6.17597" stroke="url(#linear-gradient)"/>
  <g clip-path="url(#clip-path)">
    <rect y="0.40049" width="177.73438" height="145" fill="url(#linear-gradient-2)"/>
  </g>
  <g clip-path="url(#clip-path-2)">
    <rect y="0.40049" width="177.73438" height="145" fill="url(#linear-gradient-2)"/>
  </g>
</svg>
