<?xml version="1.0" encoding="utf-8"?>
<!-- Generator: Adobe Illustrator 22.0.1, SVG Export Plug-In . SVG Version: 6.00 Build 0)  -->
<svg version="1.1" id="Layer_1" xmlns:x="&ns_extend;" xmlns:i="&ns_ai;" xmlns:graph="&ns_graphs;"
	 xmlns="http://www.w3.org/2000/svg" xmlns:xlink="http://www.w3.org/1999/xlink" x="0px" y="0px" viewBox="0 0 300 300"
	 style="enable-background:new 0 0 300 300;" xml:space="preserve">
<style type="text/css">
	.st0{fill:#FFFFFF;stroke:#FFFFFF;stroke-width:0.5313;stroke-miterlimit:10;}
	.st1{fill:#FFFFFF;}
</style>
<metadata>
	<sfw  xmlns="&ns_sfw;">
		<slices></slices>
		<sliceSourceBounds  bottomLeftOrigin="true" height="288.1" width="284" x="157.9" y="-565.6"></sliceSourceBounds>
	</sfw>
</metadata>
<g>
	<path class="st0" d="M233.1,32.5c6.5,0,13.2-1.1,20.1-3.4c6.9-2.2,13.2-5.8,18.7-10.8c2.2-1.7,5-4.1,8.4-7.1c3.3-3,6.6-4.5,9.7-4.5
		c0.9,0,1.8,0.3,2.7,0.7c0.9,0.5,1.3,1.4,1.3,2.6c0,1.7-0.7,3.5-2.2,5.4c-1.5,1.9-2.6,3.3-3.5,4.3c-10.7,11.9-23.3,20.5-37.7,25.5
		c-14.4,5.1-30,7.6-46.7,7.6c-9.8,17.2-17.6,32.5-23.4,46.1c-5.8,13.6-10.9,26.9-15.4,40.1c5.1-0.5,10.3-0.9,15.6-1.1
		c5.2-0.2,10.7-0.4,16.2-0.4h5.4c1.8,0.3,3.3,0.5,4.7,0.7c1.3,0.2,2,1,2,2.2c0,1.2-0.7,2.7-2,4.5c-2.2,3.2-5.2,6.2-9,8.8
		c-3.8,2.6-7.6,3.9-11.4,3.9h-27.8c-4,13.2-9,27.7-15.1,43.4c-6,15.8-13.4,30.6-22.1,44.4c-8.7,13.8-19,25.4-31,34.7
		c-11.9,9.3-25.8,14-41.7,14c-11.8,0-21.1-3.7-27.9-11.2c-6.8-7.5-10.3-18.3-10.5-32.4c0-1.7,0.8-3.7,2.3-5.8c1.6-2.1,3.5-4.1,5.7-6
		c2.2-1.9,4.5-3.4,6.9-4.7c2.3-1.2,4.4-1.9,6.2-1.9c2,0,3.1,0.9,3.3,2.6c0.7,10.5,3.6,19.6,8.9,27.1c5.2,7.5,13.3,11.3,24.3,11.3
		c6.5,0,12.6-2,18.2-6c5.7-4,10.9-9.2,15.6-15.7c4.7-6.5,8.9-13.8,12.7-22.1c3.8-8.2,7.2-16.6,10.4-25.1c3.1-8.5,5.8-16.7,8-24.5
		c2.2-7.9,4.2-14.8,6-20.8h-7.7c-2,0-5.1-0.1-9.2-0.2c-4.1-0.1-8.3-0.4-12.4-0.9c-4.1-0.5-7.8-1.2-11-2.2c-3.2-1-4.9-2.4-4.9-4.1
		c0-1.2,0.8-2.8,2.5-4.7c1.7-1.9,3.7-3.6,6-5.2c2.3-1.6,4.8-3,7.4-4.1c2.6-1.1,4.6-1.7,6.2-1.7c1.6,0,3,0.2,4.3,0.6
		c1.3,0.4,2.8,0.8,4.4,1.3c3.6,1,7.1,1.6,10.5,1.7c3.5,0.1,6.9,0.2,10.2,0.2c2.7-7.2,5.6-14.8,8.7-22.7c3.1-8,6.6-15.9,10.4-23.7
		c3.8-7.8,7.8-15.3,12-22.6c4.2-7.2,8.7-13.8,13.4-19.8c-7.6-1.2-14.9-2.8-21.9-4.7c-7-1.9-14.2-3.7-21.4-5.4
		c-7.3-1.7-14.7-3.2-22.3-4.5c-7.6-1.2-15.8-1.9-24.8-1.9c-5.8,0-11.5,1.4-17.1,4.3c-5.6,2.9-10.9,6-16.1,9.5
		c-5.1,3.5-10.2,6.7-15.1,9.5c-4.9,2.9-9.5,4.3-13.7,4.3c-0.5,0-1-0.1-1.7-0.2c-0.7-0.1-1-0.6-1-1.3c0-1,0.6-2.4,1.8-4.3
		c1.2-1.9,2.7-3.7,4.5-5.6c1.8-1.9,3.5-3.6,5.2-5.2c1.7-1.6,3-2.8,3.8-3.5c12-10.4,23.4-17.5,34-21.3c10.6-3.7,21.6-5.6,33-5.6
		c9.1,0,18.4,0.9,27.6,2.6c9.3,1.7,18.7,3.7,28.3,6c9.6,2.2,19.4,4.2,29.3,6C212.4,31.7,222.6,32.5,233.1,32.5z"/>
</g>
<g>
	<path class="st1" d="M259.9,262.4c-1.3-6.2-6.1-11-11.8-12c-2.7-0.5-5.4-0.7-7.9-0.8c-3.3-0.2-6.5-0.4-9-1.3
		c-0.3-0.1-0.6-0.2-0.9-0.3c0.2,0.3,0.3,0.6,0.4,1c1.1,2.2,1.7,5.4,2.3,8.8c0.4,2.5,0.9,5,1.6,7.6c1.7,5.8,6.8,9.9,13.3,10.6
		c5.2,0.6,10.3-1.1,11.6-1.7C259.9,272.8,261.2,267.6,259.9,262.4z"/>
	<path class="st1" d="M258.7,224.7c-6.1-2-12.6-0.2-16.3,4.3c-1.8,2.1-3.2,4.3-4.6,6.5c-1.8,2.8-3.6,5.4-5.6,7.1
		c-0.2,0.2-0.5,0.4-0.7,0.6c0.3,0,0.7,0.1,1.1,0.1c2.5,0.2,5.5,1.3,8.7,2.4c2.4,0.9,4.8,1.7,7.4,2.4c5.9,1.4,11.9-1,15.8-6.2
		c3.1-4.2,4.1-9.4,4.3-10.9C267.7,229.9,263.9,226.2,258.7,224.7z"/>
	<path class="st1" d="M225.3,207.3c-4.7,4.3-6.4,10.8-4.4,16.3c1,2.6,2.2,5,3.3,7.2c1.5,3,2.9,5.8,3.4,8.4c0.1,0.3,0.1,0.6,0.2,0.9
		c0.2-0.3,0.4-0.6,0.6-0.9c1.4-2.1,3.8-4.2,6.4-6.4c1.9-1.6,3.9-3.3,5.7-5.2c4.1-4.4,5.1-10.8,2.5-16.8c-2.1-4.8-6.1-8.3-7.3-9.1
		C234.3,202,229.2,203.5,225.3,207.3z"/>
	<path class="st1" d="M193.7,227.2c1.3,6.2,6,11,11.8,12c2.7,0.5,5.4,0.7,7.9,0.8c3.3,0.2,6.5,0.4,9,1.4c0.3,0.1,0.6,0.2,0.9,0.3
		c-0.2-0.3-0.3-0.6-0.4-1c-1.1-2.2-1.6-5.4-2.2-8.8c-0.4-2.5-0.9-5.1-1.6-7.6c-1.7-5.8-6.8-9.9-13.2-10.7
		c-5.2-0.6-10.3,1.1-11.6,1.6C193.8,216.8,192.4,222,193.7,227.2z"/>
	<path class="st1" d="M195.1,264.6c6,2,12.6,0.3,16.3-4.2c1.8-2.1,3.3-4.3,4.7-6.4c1.9-2.8,3.6-5.4,5.7-7.1c0.2-0.2,0.5-0.4,0.7-0.6
		c-0.3,0-0.7-0.1-1.1-0.1c-2.5-0.2-5.5-1.3-8.7-2.5c-2.4-0.9-4.8-1.8-7.3-2.4c-5.9-1.4-11.9,0.9-15.9,6.1c-3.1,4.2-4.2,9.4-4.4,10.8
		C186.1,259.4,189.9,263.2,195.1,264.6z"/>
	<path class="st1" d="M228.2,282.2c4.7-4.3,6.5-10.8,4.4-16.3c-0.9-2.6-2.1-5-3.3-7.3c-1.5-3-2.9-5.8-3.3-8.4
		c-0.1-0.3-0.1-0.6-0.2-0.9c-0.2,0.3-0.4,0.6-0.6,0.9c-1.4,2.1-3.9,4.2-6.5,6.4c-1.9,1.6-3.9,3.3-5.7,5.2
		c-4.2,4.4-5.1,10.8-2.5,16.8c2.1,4.8,6.1,8.3,7.2,9.2C219.2,287.4,224.3,286,228.2,282.2z"/>
</g>
</svg>
