<svg id="Layer_1" data-name="Layer 1" xmlns="http://www.w3.org/2000/svg" width="30.82934mm" height="31.2695mm" viewBox="0 0 87.39025 88.63795">
  <title>logo-footer-large</title>
  <path d="M70.00042,8.44331A20.0455,20.0455,0,0,0,76.17955,7.4108a15.97935,15.97935,0,0,0,5.76663-3.32806q1.02868-.80073,2.57459-2.18A4.5838,4.5838,0,0,1,87.50721.52545a1.68992,1.68992,0,0,1,.82435.22987.84467.84467,0,0,1,.41186.80328,2.74378,2.74378,0,0,1-.66983,1.664c-.447.57341-.80775,1.01464-1.081,1.31922a27.91583,27.91583,0,0,1-11.58563,7.8604,42.72347,42.72347,0,0,1-14.36646,2.353A139.77451,139.77451,0,0,0,53.832,28.927Q51.153,35.1824,49.0947,41.26287q2.3677-.22892,4.7884-.34417,2.41845-.113,4.99464-.11494H60.5258q.82276.11589,1.44182.22987a.65409.65409,0,0,1,.61811.68835,2.4214,2.4214,0,0,1-.61811,1.37668,10.67364,10.67364,0,0,1-2.78083,2.69719,6.14586,6.14586,0,0,1-3.5011,1.20492H47.13822q-1.8543,6.083-4.6345,13.36842A76.8905,76.8905,0,0,1,35.70649,74.025a41.41266,41.41266,0,0,1-9.52571,10.67188,20.23385,20.23385,0,0,1-12.82119,4.30311A11.05627,11.05627,0,0,1,4.7604,85.55758q-3.14256-3.44235-3.24377-9.98353a3.094,3.094,0,0,1,.72027-1.779,10.664,10.664,0,0,1,1.75087-1.83579,12.30793,12.30793,0,0,1,2.111-1.43416,4.18,4.18,0,0,1,1.90539-.574q.92717,0,1.03.81031a16.06176,16.06176,0,0,0,2.72911,8.3393q2.41847,3.47205,7.46642,3.473a9.60854,9.60854,0,0,0,5.61211-1.84091,20.51557,20.51557,0,0,0,4.789-4.83628A40.64253,40.64253,0,0,0,33.5444,69.105q1.74991-3.7977,3.192-7.71353,1.4415-3.91647,2.47178-7.54177,1.02868-3.62529,1.85367-6.39048H38.69357q-.92717,0-2.83256-.05683-1.906-.05652-3.81015-.28734a19.3962,19.3962,0,0,1-3.3983-.68835q-1.49418-.45687-1.49354-1.26239a2.423,2.423,0,0,1,.77263-1.43415,10.44425,10.44425,0,0,1,1.85368-1.60656,13.46659,13.46659,0,0,1,2.26553-1.26239,5.09719,5.09719,0,0,1,1.90539-.51658,4.968,4.968,0,0,1,1.33838.17241q.61779.1724,1.339.40164a13.85751,13.85751,0,0,0,3.24377.51657q1.59572.05842,3.141.05683,1.23653-3.32646,2.678-6.99964,1.44054-3.67128,3.19205-7.287,1.7499-3.61476,3.70734-6.94218a54.75567,54.75567,0,0,1,4.11985-6.08207q-3.5027-.57276-6.74551-1.43415-3.2441-.86107-6.591-1.664-3.34754-.80169-6.84831-1.37733a47.32188,47.32188,0,0,0-7.62095-.5734,11.40109,11.40109,0,0,0-5.252,1.31922,47.0996,47.0996,0,0,0-4.94356,2.92641q-2.36961,1.60816-4.63386,2.92642a8.48373,8.48373,0,0,1-4.22265,1.31922,2.8259,2.8259,0,0,1-.51466-.05683.35768.35768,0,0,1-.30906-.40164,2.77366,2.77366,0,0,1,.56639-1.31986,12.0855,12.0855,0,0,1,1.39009-1.72149q.82371-.86011,1.59635-1.60657.77295-.74517,1.18448-1.09A33.4819,33.4819,0,0,1,24.2243,4.886,30.333,30.333,0,0,1,34.36811,3.16516a46.00348,46.00348,0,0,1,8.49574.80328q4.27278.80361,8.70263,1.8358,4.426,1.03251,9.011,1.83579A54.38091,54.38091,0,0,0,70.00042,8.44331Z" transform="translate(-1.4349 -0.44372)" fill="#fff" stroke="#fff" stroke-miterlimit="10" stroke-width="0.16347"/>
  <g>
    <path d="M79.765,75.28908A3.47542,3.47542,0,0,0,77.03386,72.52a16.00762,16.00762,0,0,0-1.82565-.18722,7.52758,7.52758,0,0,1-2.07187-.31052q-.10239-.03166-.19728-.06669.05326.10771.10259.22136a8.228,8.228,0,0,1,.51925,2.02569,17.70358,17.70358,0,0,0,.36852,1.74339,3.52572,3.52572,0,0,0,3.06143,2.45518,5.88085,5.88085,0,0,0,2.67042-.38391A5.47019,5.47019,0,0,0,79.765,75.28908Z" transform="translate(-1.4349 -0.44372)" fill="#fff"/>
    <path d="M79.48776,66.60641a3.47542,3.47542,0,0,0-3.75951.99657,16.00867,16.00867,0,0,0-1.0687,1.492,7.527,7.527,0,0,1-1.29794,1.6445q-.07832.07317-.15581.13817.12.00721.24308.02081a8.22735,8.22735,0,0,1,2.01628.55469,17.709,17.709,0,0,0,1.69639.54541,3.52572,3.52572,0,0,0,3.65094-1.43907,5.88087,5.88087,0,0,0,.99219-2.5088A5.47009,5.47009,0,0,0,79.48776,66.60641Z" transform="translate(-1.4349 -0.44372)" fill="#fff"/>
    <path d="M71.78621,62.57935a3.47542,3.47542,0,0,0-1.00493,3.75728,16.01051,16.01051,0,0,0,.763,1.66912,7.52713,7.52713,0,0,1,.7813,1.94387c.01636.06955.0305.13766.04239.20388q.06592-.10047.13894-.20054a8.22742,8.22742,0,0,1,1.4839-1.47346A17.70606,17.70606,0,0,0,75.30755,67.279a3.52572,3.52572,0,0,0,.567-3.88313,5.88093,5.88093,0,0,0-1.68321-2.1084A5.47021,5.47021,0,0,0,71.78621,62.57935Z" transform="translate(-1.4349 -0.44372)" fill="#fff"/>
    <path d="M64.49719,67.17309a3.47541,3.47541,0,0,0,2.72594,2.77421,16.00791,16.00791,0,0,0,1.8253.19067,7.527,7.527,0,0,1,2.07127.31444q.10233.03185.19716.067-.05307-.10782-.10217-.22154a8.228,8.228,0,0,1-.51542-2.02668,17.70921,17.70921,0,0,0-.36523-1.74408,3.52573,3.52573,0,0,0-3.05679-2.461,5.88087,5.88087,0,0,0-2.67114.37887A5.47015,5.47015,0,0,0,64.49719,67.17309Z" transform="translate(-1.4349 -0.44372)" fill="#fff"/>
    <path d="M64.80814,75.814a3.4754,3.4754,0,0,0,3.76626-.97072,16.0097,16.0097,0,0,0,1.07892-1.48458,7.52727,7.52727,0,0,1,1.30921-1.63555q.07881-.07263.15675-.13709-.1199-.00805-.24293-.02248a8.22768,8.22768,0,0,1-2.01242-.56853,17.70776,17.70776,0,0,0-1.6926-.55705A3.52575,3.52575,0,0,0,63.51058,71.852a5.8811,5.8811,0,0,0-1.00939,2.50193A5.4702,5.4702,0,0,0,64.80814,75.814Z" transform="translate(-1.4349 -0.44372)" fill="#fff"/>
    <path d="M72.43612,79.86174a3.47542,3.47542,0,0,0,1.02476-3.75192,16.00931,16.00931,0,0,0-.75414-1.67312,7.52721,7.52721,0,0,1-.771-1.948c-.016-.06963-.02977-.13782-.04131-.2041q-.06645.10013-.14.1998A8.22789,8.22789,0,0,1,70.26274,73.95a17.70992,17.70992,0,0,0-1.3231,1.19357,3.52575,3.52575,0,0,0-.58754,3.88009A5.88083,5.88083,0,0,0,70.02416,81.141,5.47007,5.47007,0,0,0,72.43612,79.86174Z" transform="translate(-1.4349 -0.44372)" fill="#fff"/>
  </g>
</svg>
