<svg id="Layer_1" data-name="Layer 1" xmlns="http://www.w3.org/2000/svg" width="110.63409mm" height="50.95801mm" viewBox="0 0 313.60845 144.44789">
  <title>logo-main</title>
  <g>
    <path d="M311.65545,94.98267a9.1559,9.1559,0,0,0-7.19521-7.295,42.1747,42.1747,0,0,0-4.80963-.49323,19.83025,19.83025,0,0,1-5.45826-.81806q-.26975-.08342-.51973-.17567.14033.28377.27026.58314a21.67565,21.67565,0,0,1,1.36794,5.33664,46.64861,46.64861,0,0,0,.97087,4.5929,9.2884,9.2884,0,0,0,8.06524,6.4681,15.493,15.493,0,0,0,7.03513-1.01141A14.41079,14.41079,0,0,0,311.65545,94.98267Z" transform="translate(-3.42036 -2.05668)" fill="#fff"/>
    <path d="M310.925,72.10845a9.1559,9.1559,0,0,0-9.9043,2.62543,42.17714,42.17714,0,0,0-2.81545,3.93053,19.82991,19.82991,0,0,1-3.41939,4.33238q-.2063.19276-.41047.364.316.019.64038.05482a21.6759,21.6759,0,0,1,5.31183,1.46131,46.64837,46.64837,0,0,0,4.46909,1.43687,9.28841,9.28841,0,0,0,9.61829-3.79117,15.493,15.493,0,0,0,2.61388-6.60936A14.411,14.411,0,0,0,310.925,72.10845Z" transform="translate(-3.42036 -2.05668)" fill="#fff"/>
    <path d="M290.63548,61.4993a9.15591,9.15591,0,0,0-2.64747,9.89843,42.17533,42.17533,0,0,0,2.01,4.39724,19.83079,19.83079,0,0,1,2.05831,5.121c.0431.18323.08035.36266.11168.53714q.17365-.2647.366-.52833a21.67611,21.67611,0,0,1,3.90931-3.88179,46.64847,46.64847,0,0,0,3.469-3.16279,9.2884,9.2884,0,0,0,1.49387-10.23,15.49308,15.49308,0,0,0-4.43436-5.5545A14.41088,14.41088,0,0,0,290.63548,61.4993Z" transform="translate(-3.42036 -2.05668)" fill="#fff"/>
    <path d="M271.43276,73.60135a9.15591,9.15591,0,0,0,7.18142,7.30858,42.17835,42.17835,0,0,0,4.80869.50231,19.83,19.83,0,0,1,5.4567.82837q.26958.08392.5194.17665-.13979-.284-.26916-.58365A21.67616,21.67616,0,0,1,287.772,76.4944a46.64323,46.64323,0,0,0-.96219-4.59473,9.2884,9.2884,0,0,0-8.053-6.48332,15.49319,15.49319,0,0,0-7.037.99811A14.41092,14.41092,0,0,0,271.43276,73.60135Z" transform="translate(-3.42036 -2.05668)" fill="#fff"/>
    <path d="M272.252,96.36567a9.1559,9.1559,0,0,0,9.9221-2.55733,42.17526,42.17526,0,0,0,2.84239-3.9111,19.83,19.83,0,0,1,3.44907-4.30879q.20762-.19134.413-.36117-.31587-.02119-.64-.05922a21.676,21.676,0,0,1-5.30167-1.49776,46.64329,46.64329,0,0,0-4.45911-1.46753,9.28842,9.28842,0,0,0-9.64411,3.725,15.49317,15.49317,0,0,0-2.65921,6.59125A14.41079,14.41079,0,0,0,272.252,96.36567Z" transform="translate(-3.42036 -2.05668)" fill="#fff"/>
    <path d="M292.34764,107.0292a9.15587,9.15587,0,0,0,2.69968-9.88432,42.17239,42.17239,0,0,0-1.98675-4.40779,19.83052,19.83052,0,0,1-2.03124-5.13184c-.04213-.18346-.07844-.36308-.10884-.53772q-.175.26377-.3688.52639a21.67622,21.67622,0,0,1-3.92975,3.8611,46.6461,46.6461,0,0,0-3.48566,3.14443,9.28842,9.28842,0,0,0-1.54786,10.222,15.49323,15.49323,0,0,0,4.405,5.57783A14.41082,14.41082,0,0,0,292.34764,107.0292Z" transform="translate(-3.42036 -2.05668)" fill="#fff"/>
  </g>
  <g>
    <path d="M132.78861,58.76392c-3.44585,11.96949-15.55775,23.83816-25.33708,29.77353-2.22239,5.12978-3.66725,9.65563-3.66725,13.17632,0,2.41365.66734,4.12358,2.11116,4.12358,5.11212,0,11.55787-6.73889,15.78019-13.98087,1.44487-2.51448,3.8897-2.51448,4.66722.10083a8.89819,8.89819,0,0,1-1.11119,6.53722c-1.66731,3.01758-9.89055,11.26577-19.225,11.26577-6.77838,0-11.00175-3.52068-11.00175-10.46018a21.90727,21.90727,0,0,1,.77856-5.73372c4.33355-16.697,16.89139-35.30559,27.78087-45.666,2.1122-1.91055,4.11214-2.51448,6.22331-.70372a9.43077,9.43077,0,0,1,3.66725,7.34281A12.20044,12.20044,0,0,1,132.78861,58.76392Zm-12.66906,7.94674c-2.88869,4.425-7.77835,11.9695-8.55588,13.67943A64.59458,64.59458,0,0,0,122.6756,67.615c3.77848-5.73267,5.22334-10.15874,4.556-10.561C126.78775,56.85233,123.898,60.77529,120.11955,66.71066Z" transform="translate(-3.42036 -2.05668)" fill="#fff"/>
    <path d="M149.9014,68.31976c3.99988,0,6.44471,1.81076,7.44468,4.425l2.1122-3.11737c1.33364-2.01242,3.22236-2.11221,4.556-.70476,1.88871,2.01241,2.88868,6.43743,0,11.668-2.88973,5.53206-12.22417,16.49639-12.22417,23.23527,0,1.50931.4449,2.41365,1.55609,2.41365,3.99988,0,9.55688-6.83971,13.22413-13.37694,1.22242-2.01241,2.22239-2.1122,3.33358,0a7.627,7.627,0,0,1-.44489,6.53723c-2.88869,5.53206-10.00074,10.8635-16.78016,10.8635-5.556,0-8.77832-2.61531-9.66707-6.33661-3.22339,2.81592-8.22428,5.93433-12.66906,5.93433-6.55593,0-10.112-4.32523-10.112-10.25956,0-4.32524,1.99994-9.95812,6.00086-14.98708C135.12118,73.04727,144.23421,68.31976,149.9014,68.31976Zm-3.8897,22.53051c4.33355-6.83971,6.33453-11.76784,6.33453-14.38314,0-1.20683-.22245-1.91159-1.33364-1.91159-2.22239,0-9.89055,6.33661-15.55774,14.5848-3.33358,4.72751-5.22334,10.059-5.22334,13.27715,0,1.81076.44489,3.01758,1.55609,3.01758C135.45485,105.43507,140.567,99.30012,146.0117,90.85027Z" transform="translate(-3.42036 -2.05668)" fill="#fff"/>
    <path d="M175.90373,100.60777c8.0008-11.16494,20.11374-25.54912,26.66968-31.68511,2.44483-2.11221,3.77847-1.70993,4.11214.70476.33367,2.213-.88875,4.92812-4.66722,9.05274-10.113,10.96329-17.6689,19.00982-25.6697,30.47725a2.85754,2.85754,0,0,1-3.66725,1.20683c-4.556-1.91159-6.44575-4.22441-6.11209-9.55585.44386-6.94054,3.33358-20.92141,7.22328-31.38263.6663-1.81076,2.22239-2.31282,3.99988-1.00517a9.00077,9.00077,0,0,1,3.77847,7.4426,20.39467,20.39467,0,0,1-.77752,5.43227C178.0149,91.25254,176.9037,95.27633,175.90373,100.60777Z" transform="translate(-3.42036 -2.05668)" fill="#fff"/>
    <path d="M205.6835,109.962c-6.77942,0-9.77933-3.52068-9.77933-8.54964a20.7801,20.7801,0,0,1,1.33364-6.63909c2.77746-7.04033,9.88952-18.70838,14.00166-23.939,1.66627-2.01137,2.99991-2.213,4.44477-.70372,2.11116,2.01137,3.001,6.33661.11122,11.36556-2.11116,4.32524-7.22327,11.86867-9.112,15.89245a16.28837,16.28837,0,0,0-1.55608,6.03517c0,1.6091.44489,2.51447,1.66731,2.51447,4.44477,0,10.22318-6.73888,13.668-13.57859.88875-1.81076,2.33361-1.6091,3.33358.20062,1,1.70993.88875,4.2244-.55507,6.83971C219.90761,105.73756,212.23944,109.962,205.6835,109.962Zm14.22411-51.29887c3.11113,0,6.111,3.62151,6.111,6.53826,0,2.71614-1.66627,5.029-4.44477,5.029-3.556,0-6.55594-3.01758-6.55594-6.135C215.01794,61.27839,217.35155,58.66309,219.90761,58.66309Z" transform="translate(-3.42036 -2.05668)" fill="#fff"/>
    <path d="M248.57826,68.31976c3.99988,0,6.44471,1.81076,7.44468,4.425l2.11221-3.11737c1.33364-2.01242,3.22235-2.11221,4.556-.70476,1.88872,2.01241,2.88869,6.43743,0,11.668C259.80142,86.12276,250.467,97.08709,250.467,103.826c0,1.50931.44489,2.41365,1.55609,2.41365,3.99987,0,9.55688-6.83971,13.22413-13.37694,1.22242-2.01241,2.22239-2.1122,3.33358,0a7.62708,7.62708,0,0,1-.44489,6.53723c-2.88869,5.53206-10.00074,10.8635-16.78016,10.8635-5.556,0-8.77833-2.61531-9.66707-6.33661-3.2234,2.81592-8.22429,5.93433-12.66906,5.93433-6.55594,0-10.112-4.32523-10.112-10.25956,0-4.32524,1.99994-9.95812,6.00086-14.98708C233.798,73.04727,242.91107,68.31976,248.57826,68.31976Zm-3.88969,22.53051c4.33355-6.83971,6.33453-11.76784,6.33453-14.38314,0-1.20683-.22245-1.91159-1.33364-1.91159-2.22239,0-9.89056,6.33661-15.55775,14.5848-3.33358,4.72751-5.22333,10.059-5.22333,13.27715,0,1.81076.44489,3.01758,1.55608,3.01758C234.13171,105.43507,239.24382,99.30012,244.68857,90.85027Z" transform="translate(-3.42036 -2.05668)" fill="#fff"/>
  </g>
  <path d="M115.03758,15.07916a32.63176,32.63176,0,0,0,10.05895-1.68082A26.013,26.013,0,0,0,134.484,7.98062q1.67459-1.3035,4.19114-3.54875a7.4619,7.4619,0,0,1,4.8616-2.24213,2.751,2.751,0,0,1,1.342.3742,1.375,1.375,0,0,1,.67046,1.30766,4.46665,4.46665,0,0,1-1.09041,2.70886c-.72763.93344-1.31493,1.65171-1.75982,2.14754a45.44389,45.44389,0,0,1-18.86014,12.79587,69.54875,69.54875,0,0,1-23.387,3.83045,227.53624,227.53624,0,0,0-11.73457,23.07q-4.3611,10.18317-7.71183,20.08152,3.85435-.37266,7.795-.56028,3.937-.184,8.13074-.1871h2.68287q1.33935.18865,2.34712.37421a1.06477,1.06477,0,0,1,1.00621,1.12055,3.9418,3.9418,0,0,1-1.00621,2.24109A17.37534,17.37534,0,0,1,97.43416,75.885a10.00473,10.00473,0,0,1-5.69941,1.96148H77.82041Q74.80178,87.749,70.27593,99.60884a125.1684,125.1684,0,0,1-11.06515,22.2301A67.41533,67.41533,0,0,1,43.704,139.2116a32.93852,32.93852,0,0,1-20.87152,7.005q-8.889,0-13.99853-5.60378Q3.71815,135.009,3.55341,124.3607a5.03671,5.03671,0,0,1,1.17252-2.896,17.36018,17.36018,0,0,1,2.85023-2.98847,20.0359,20.0359,0,0,1,3.43648-2.33465,6.8046,6.8046,0,0,1,3.10178-.93448q1.50931,0,1.67667,1.31908a26.14677,26.14677,0,0,0,4.44269,13.57548q3.937,5.65212,12.15452,5.65367a15.64163,15.64163,0,0,0,9.1359-2.99679,33.397,33.397,0,0,0,7.796-7.87294,66.16026,66.16026,0,0,0,6.37091-11.0558q2.84866-6.18225,5.19631-12.5568,2.3466-6.37559,4.02379-12.27717,1.67458-5.9016,3.01758-10.403H64.07342q-1.50931,0-4.61109-.09251-3.10283-.092-6.20252-.46776a31.57418,31.57418,0,0,1-5.532-1.12055q-2.43237-.74375-2.43132-2.055a3.94442,3.94442,0,0,1,1.25775-2.33465A17.003,17.003,0,0,1,49.57177,69.907a21.9234,21.9234,0,0,1,3.688-2.055,8.29772,8.29772,0,0,1,3.10178-.84093,8.08734,8.08734,0,0,1,2.17873.28066q1.00569.28065,2.17977.65382a22.55829,22.55829,0,0,0,5.2805.84093q2.59764.09512,5.11316.09252,2.01292-5.41512,4.35953-11.39467,2.34505-5.97644,5.19631-11.86243,2.84867-5.88444,6.03516-11.30111a89.13478,89.13478,0,0,1,6.70666-9.901q-5.702-.93241-10.981-2.33465-5.281-1.40173-10.7294-2.70886-5.44942-1.30506-11.14832-2.24214a77.03418,77.03418,0,0,0-12.40607-.93344A18.5598,18.5598,0,0,0,39.597,18.34829a76.67473,76.67473,0,0,0-8.04757,4.76389Q27.692,25.73009,24.006,27.87607a13.81066,13.81066,0,0,1-6.874,2.14755,4.60031,4.60031,0,0,1-.83781-.09252.58224.58224,0,0,1-.5031-.65382,4.51521,4.51521,0,0,1,.922-2.14859A19.67514,19.67514,0,0,1,18.976,24.32628q1.34092-1.40016,2.59868-2.6153,1.25828-1.21306,1.92821-1.77438Q32.55565,12.09069,40.519,9.28827a49.379,49.379,0,0,1,16.513-2.80137A74.88763,74.88763,0,0,1,70.86219,7.79456Q77.81781,9.10273,85.02913,10.783q7.20509,1.68082,14.669,2.98848A88.52773,88.52773,0,0,0,115.03758,15.07916Z" transform="translate(-3.42036 -2.05668)" fill="#fff" stroke="#fff" stroke-miterlimit="10" stroke-width="0.2661"/>
  <g>
    <path d="M112.34312,125.80454h-8.18536V146.066h-.76443V125.80454H95.208v-.73473h17.13515Z" transform="translate(-3.42036 -2.05668)" fill="#fff" stroke="#fff" stroke-miterlimit="10" stroke-width="0.25248"/>
    <path d="M127.103,137.76259a8.56778,8.56778,0,0,1-.65487,3.34427,8.69666,8.69666,0,0,1-1.79412,2.73329,8.58188,8.58188,0,0,1-2.65689,1.85316,8.03912,8.03912,0,0,1-6.48629,0,8.5666,8.5666,0,0,1-2.659-1.85316,8.691,8.691,0,0,1-1.79205-2.73329,8.81377,8.81377,0,0,1,0-6.66783,8.691,8.691,0,0,1,1.79205-2.73329,8.42667,8.42667,0,0,1,2.659-1.84306,8.14968,8.14968,0,0,1,6.48629,0,8.44128,8.44128,0,0,1,2.65689,1.84306,8.69666,8.69666,0,0,1,1.79412,2.73329A8.5156,8.5156,0,0,1,127.103,137.76259Zm-.66526,0a7.91128,7.91128,0,0,0-.6029-3.06453,8.24084,8.24084,0,0,0-1.64652-2.547,7.89887,7.89887,0,0,0-2.44067-1.73954,7.30282,7.30282,0,0,0-5.98735,0,7.90794,7.90794,0,0,0-2.44275,1.73954,8.24084,8.24084,0,0,0-1.64652,2.547,8.11577,8.11577,0,0,0,0,6.13918,8.32663,8.32663,0,0,0,1.64652,2.56766,7.82167,7.82167,0,0,0,2.44275,1.75013,7.30282,7.30282,0,0,0,5.98735,0,7.81277,7.81277,0,0,0,2.44067-1.75013,8.32663,8.32663,0,0,0,1.64652-2.56766A7.988,7.988,0,0,0,126.43774,137.76259Z" transform="translate(-3.42036 -2.05668)" fill="#fff" stroke="#fff" stroke-miterlimit="10" stroke-width="0.25612"/>
    <path d="M140.217,146.066H127.82647L138.77,130.08031H127.58323v-.57969H139.9155l-10.88325,15.98566H140.217Z" transform="translate(-3.42036 -2.05668)" fill="#fff" stroke="#fff" stroke-miterlimit="10" stroke-width="0.25612"/>
    <path d="M154.56038,146.066H142.16782l10.94354-15.98566h-11.1847v-.57969h12.33227l-10.88325,15.98566h11.1847Z" transform="translate(-3.42036 -2.05668)" fill="#fff" stroke="#fff" stroke-miterlimit="10" stroke-width="0.25612"/>
    <path d="M175.55905,146.08667h-.70268l-12.17219-15.69582.02079,15.69582h-.684v-16.586h.70476l12.17011,15.63371V129.50062h.66318Z" transform="translate(-3.42036 -2.05668)" fill="#fff" stroke="#fff" stroke-miterlimit="10" stroke-width="0.25612"/>
    <path d="M179.36143,146.08706V129.48672h.605v16.60034Z" transform="translate(-3.42036 -2.05668)" fill="#fff" stroke="#fff" stroke-miterlimit="10" stroke-width="0.26586"/>
    <path d="M157.67394,146.1076V129.50726h.605V146.1076Z" transform="translate(-3.42036 -2.05668)" fill="#fff" stroke="#fff" stroke-miterlimit="10" stroke-width="0.26586"/>
    <path d="M213.37081,140.51329a5.41334,5.41334,0,0,1-.43448,2.161,5.69795,5.69795,0,0,1-1.18866,1.768,5.48443,5.48443,0,0,1-1.76249,1.19132,5.41172,5.41172,0,0,1-2.158.43239H196.9755V125.06981h9.73061a5.14073,5.14073,0,0,1,2.031.40771,5.313,5.313,0,0,1,1.67232,1.11775,5.438,5.438,0,0,1,1.13743,1.67022,5.08378,5.08378,0,0,1,.42013,2.06511,5.519,5.519,0,0,1-.15371,1.22312,4.98583,4.98583,0,0,1-.5226,1.328,5.89142,5.89142,0,0,1-.95912,1.2497,4.94877,4.94877,0,0,1-1.43049.98628,6.09921,6.09921,0,0,1,2.02892.87758,5.60946,5.60946,0,0,1,1.3936,1.33561,5.42989,5.42989,0,0,1,.79107,1.58431A5.493,5.493,0,0,1,213.37081,140.51329Zm-2.24411-10.12858a4.44823,4.44823,0,0,0-.35865-1.77654,4.81869,4.81869,0,0,0-.96937-1.46091,4.4653,4.4653,0,0,0-3.195-1.34272h-8.86371v9.21207h8.86371a4.23222,4.23222,0,0,0,1.7625-.36784,4.63762,4.63762,0,0,0,1.43254-1.00051,4.76643,4.76643,0,0,0,.96937-1.4742A4.544,4.544,0,0,0,211.1267,130.38471Zm1.4018,10.11718a4.76518,4.76518,0,0,0-.371-1.8762,4.59818,4.59818,0,0,0-1.04725-1.53543,5.03083,5.03083,0,0,0-1.59649-1.03659,5.226,5.226,0,0,0-2.01662-.38065h-9.75726v9.65822h10.038a4.52661,4.52661,0,0,0,1.83832-.38065,4.76322,4.76322,0,0,0,1.52067-1.04988,4.97376,4.97376,0,0,0,1.0206-1.53542A4.668,4.668,0,0,0,212.5285,140.50189Z" transform="translate(-3.42036 -2.05668)" fill="#fff" stroke="#fff" stroke-miterlimit="10" stroke-width="0.25248"/>
    <path d="M228.65088,146.066h-.66318l-2.23278-5.01111H216.2604l-2.23486,5.01111h-.684l7.34281-16.56535h.605Zm-3.15791-5.59079-4.50506-10.12573-4.46764,10.12573Z" transform="translate(-3.42036 -2.05668)" fill="#fff" stroke="#fff" stroke-miterlimit="10" stroke-width="0.25612"/>
    <path d="M243.29077,146.066h-.82534l-4.7088-7.1233h-6.99355v7.144h-.60289v-16.586h7.89789a4.39231,4.39231,0,0,1,1.79412.38277,5.13322,5.13322,0,0,1,1.52179,1.025,5.02086,5.02086,0,0,1,1.04778,1.4911,4.23867,4.23867,0,0,1,.39292,1.80117,4.005,4.005,0,0,1-.27234,1.40829,4.74014,4.74014,0,0,1-.79623,1.35629,5.51444,5.51444,0,0,1-1.33052,1.13867,6.07665,6.07665,0,0,1-1.85442.7559Zm-1.14134-11.85468a3.92982,3.92982,0,0,0-.33055-1.58787,4.17226,4.17226,0,0,0-.90642-1.31826,4.44786,4.44786,0,0,0-1.32844-.89264,3.86787,3.86787,0,0,0-1.57791-.33221h-7.243V138.363h6.83971a4.79045,4.79045,0,0,0,1.78165-.33173,4.69161,4.69161,0,0,0,1.44694-.89264,4.1186,4.1186,0,0,0,.96671-1.31874A3.76626,3.76626,0,0,0,242.14943,134.21129Z" transform="translate(-3.42036 -2.05668)" fill="#fff" stroke="#fff" stroke-miterlimit="10" stroke-width="0.25612"/>
    <path d="M258.0159,146.066h-.82534l-4.7088-7.1233h-6.99147v7.144h-.605v-16.586h7.9a4.38992,4.38992,0,0,1,1.792.38277,5.10667,5.10667,0,0,1,1.52179,1.025,5.021,5.021,0,0,1,1.04778,1.4911,4.23867,4.23867,0,0,1,.39292,1.80117,4.005,4.005,0,0,1-.27234,1.40829,4.69291,4.69291,0,0,1-.79623,1.35629,5.54245,5.54245,0,0,1-1.32845,1.13867,6.09821,6.09821,0,0,1-1.85441.7559Zm-1.13926-11.85468a3.89741,3.89741,0,0,0-.33263-1.58787,4.13288,4.13288,0,0,0-.90434-1.31826,4.44786,4.44786,0,0,0-1.32844-.89264,3.87758,3.87758,0,0,0-1.58-.33221h-7.24094V138.363H252.33a4.77961,4.77961,0,0,0,1.77957-.33173,4.702,4.702,0,0,0,1.449-.89264,4.11267,4.11267,0,0,0,.96463-1.31874A3.76808,3.76808,0,0,0,256.87664,134.21129Z" transform="translate(-3.42036 -2.05668)" fill="#fff" stroke="#fff" stroke-miterlimit="10" stroke-width="0.25612"/>
    <path d="M271.70364,146.08667H259.61252v-16.586h12.09112v.57969H260.21542v7.30963H270.475v.57968H260.21542V145.507h11.48822Z" transform="translate(-3.42036 -2.05668)" fill="#fff" stroke="#fff" stroke-miterlimit="10" stroke-width="0.25612"/>
    <path d="M286.90907,130.08031h-6.45719V146.066H279.849V130.08031H273.3918v-.57969h13.51727Z" transform="translate(-3.42036 -2.05668)" fill="#fff" stroke="#fff" stroke-miterlimit="10" stroke-width="0.25612"/>
    <path d="M301.4929,130.08031h-6.45719V146.066h-.605V130.08031h-6.45719v-.57969H301.4929Z" transform="translate(-3.42036 -2.05668)" fill="#fff" stroke="#fff" stroke-miterlimit="10" stroke-width="0.25612"/>
    <path d="M316.64407,137.76259a8.568,8.568,0,0,1-.65486,3.34427,8.69114,8.69114,0,0,1-1.79205,2.73329,8.5666,8.5666,0,0,1-2.659,1.85316,8.03912,8.03912,0,0,1-6.48629,0,8.591,8.591,0,0,1-2.659-1.85316,8.69094,8.69094,0,0,1-1.792-2.73329,8.81377,8.81377,0,0,1,0-6.66783,8.69094,8.69094,0,0,1,1.792-2.73329,8.45026,8.45026,0,0,1,2.659-1.84306,8.14968,8.14968,0,0,1,6.48629,0,8.42667,8.42667,0,0,1,2.659,1.84306,8.69114,8.69114,0,0,1,1.79205,2.73329A8.51577,8.51577,0,0,1,316.64407,137.76259Zm-.66318,0a7.91145,7.91145,0,0,0-.60289-3.06453,8.24684,8.24684,0,0,0-1.6486-2.547,7.87449,7.87449,0,0,0-2.44068-1.73954,7.3028,7.3028,0,0,0-5.98734,0,7.87461,7.87461,0,0,0-2.44068,1.73954,8.2412,8.2412,0,0,0-1.64652,2.547,8.11577,8.11577,0,0,0,0,6.13918,8.327,8.327,0,0,0,1.64652,2.56766,7.78907,7.78907,0,0,0,2.44068,1.75013,7.3028,7.3028,0,0,0,5.98734,0,7.789,7.789,0,0,0,2.44068-1.75013,8.3326,8.3326,0,0,0,1.6486-2.56766A7.98814,7.98814,0,0,0,315.98089,137.76259Z" transform="translate(-3.42036 -2.05668)" fill="#fff" stroke="#fff" stroke-miterlimit="10" stroke-width="0.25612"/>
  </g>
</svg>
