<svg id="marketing" xmlns="http://www.w3.org/2000/svg" xmlns:xlink="http://www.w3.org/1999/xlink" width="61.79819mm" height="51.21485mm" viewBox="0 0 175.17597 145.17597">
  <defs>
    <linearGradient id="linear-gradient" x1="-3.66885" y1="83.41989" x2="182.26131" y2="57.28911" gradientUnits="userSpaceOnUse">
      <stop offset="0" stop-color="#083445"/>
      <stop offset="0.07426" stop-color="#035373"/>
      <stop offset="0.10593" stop-color="#025a7e"/>
      <stop offset="0.15476" stop-color="#005f86"/>
      <stop offset="0.23033" stop-color="#006189"/>
      <stop offset="0.27652" stop-color="#086189"/>
      <stop offset="0.3485" stop-color="#1e638b"/>
      <stop offset="0.43727" stop-color="#42658d"/>
      <stop offset="0.53935" stop-color="#746890"/>
      <stop offset="0.64862" stop-color="#b26b93"/>
      <stop offset="1" stop-color="#ee9393"/>
    </linearGradient>
    <linearGradient id="linear-gradient-2" x1="62.47502" y1="62.04172" x2="116.12877" y2="54.50118" gradientUnits="userSpaceOnUse">
      <stop offset="0" stop-color="#006189"/>
      <stop offset="0.00912" stop-color="#026189"/>
      <stop offset="0.27045" stop-color="#40658d"/>
      <stop offset="0.50925" stop-color="#71678f"/>
      <stop offset="0.71773" stop-color="#956991"/>
      <stop offset="0.88778" stop-color="#aa6b93"/>
      <stop offset="0.9982" stop-color="#b26b93"/>
    </linearGradient>
  </defs>
  <title>marketing-large</title>
  <path d="M172.5,111.74162a7.43544,7.43544,0,0,1-7.50777,7.31579H11.00777A7.43545,7.43545,0,0,1,3.5,111.74162V10.50329A7.43545,7.43545,0,0,1,11.00777,3.1875h153.982a7.43545,7.43545,0,0,1,7.50778,7.31579V111.74162ZM71.578,119.02083,54.37018,140.66337M104.422,119.02083l17.20781,21.64254M41.07641,142.1875h93.84718M6.04029,108.333H170.8985" transform="translate(-0.41202 -0.09951)" fill="none" stroke-linecap="round" stroke-linejoin="round" stroke-width="6.17597" stroke="url(#linear-gradient)"/>
  <path d="M64.35943,62.85123a5.625,5.625,0,0,1,2.07186,6.37506A5.62512,5.62512,0,0,0,71.8126,76.642a5.62516,5.62516,0,0,1,5.42822,3.93756,5.625,5.625,0,0,0,8.70946,2.81253,5.6251,5.6251,0,0,1,6.70323,0,5.62507,5.62507,0,0,0,8.70946-2.81253,5.62513,5.62513,0,0,1,5.39069-3.93756,5.625,5.625,0,0,0,5.3813-7.41569,5.598,5.598,0,0,1,2.1094-6.37506,5.62506,5.62506,0,0,0,0-9.1595,5.625,5.625,0,0,1-2.07186-6.37507,5.62517,5.62517,0,0,0-5.38136-7.41574,5.625,5.625,0,0,1-5.42817-3.93756,5.62512,5.62512,0,0,0-8.70946-2.81253,5.62513,5.62513,0,0,1-6.70323,0,5.62507,5.62507,0,0,0-8.70946,2.81253,5.625,5.625,0,0,1-5.42822,3.93756,5.62516,5.62516,0,0,0-5.38131,7.41574,5.62508,5.62508,0,0,1-2.07186,6.37507,5.625,5.625,0,0,0,0,9.1595Zm17.11891-6.29908a3.1313,3.1313,0,0,1,4.42508-.16977l1.29377,1.275,5.42817-5.42817a3.13127,3.13127,0,0,1,4.42508,0l.01551.01551a3.13132,3.13132,0,0,1-.01551,4.42828l-5.42823,5.42817L89.4097,64.31374a3.13131,3.13131,0,0,1-4.425,0l-2.21257-2.21257L81.47834,60.8074A3.13129,3.13129,0,0,1,81.47834,56.55215Z" transform="translate(-0.41202 -0.09951)" fill="url(#linear-gradient-2)"/>
</svg>
