<?xml version="1.0" standalone="no"?>
<!DOCTYPE svg PUBLIC "-//W3C//DTD SVG 20010904//EN"
 "http://www.w3.org/TR/2001/REC-SVG-20010904/DTD/svg10.dtd">
<svg version="1.0" xmlns="http://www.w3.org/2000/svg"
 width="294.000000pt" height="294.000000pt" viewBox="0 0 294.000000 294.000000"
 preserveAspectRatio="xMidYMid meet">
<metadata>
Created by potrace 1.11, written by Peter Selinger 2001-2013
</metadata>
<g transform="translate(0.000000,294.000000) scale(0.100000,-0.100000)"
fill="#000000" stroke="none">
<path d="M2815 2918 c-11 -6 -56 -42 -100 -78 -148 -124 -248 -162 -424 -164
-189 -2 -219 3 -761 118 -198 42 -304 54 -430 51 -111 -4 -148 -9 -250 -36
-153 -41 -319 -144 -466 -289 -85 -85 -117 -135 -94 -151 39 -26 132 13 313
131 195 129 260 149 434 138 141 -9 265 -32 530 -97 109 -27 217 -52 239 -56
l42 -6 -73 -110 c-97 -145 -207 -365 -289 -574 -37 -93 -71 -180 -77 -193 -9
-23 -12 -23 -94 -17 -47 3 -106 12 -132 20 -27 8 -60 15 -75 15 -68 0 -228
-110 -228 -158 0 -29 35 -50 101 -62 89 -16 119 -19 240 -19 l117 -1 -25 -82
c-175 -594 -318 -877 -510 -1010 -60 -41 -116 -58 -189 -58 -111 0 -199 48
-257 141 -23 39 -58 146 -63 198 -8 67 -10 71 -46 71 -35 0 -95 -30 -142 -71
-71 -62 -84 -113 -60 -239 40 -209 175 -320 393 -320 211 0 375 80 559 275
193 203 361 531 513 1003 l33 102 91 0 c249 1 268 5 352 83 60 55 77 88 58
113 -12 17 -27 19 -161 17 -82 -1 -176 -4 -210 -7 l-63 -6 18 53 c75 215 210
518 318 713 l56 102 56 1 c114 2 196 14 321 48 174 46 307 120 428 237 101 98
123 135 99 174 -10 15 -65 15 -92 0z"/>
<path d="M2295 1168 c-74 -38 -119 -93 -136 -166 -9 -42 3 -87 52 -189 21 -45
39 -89 39 -97 0 -22 3 -21 47 22 22 20 63 59 93 86 60 57 82 101 82 165 -1 59
-23 111 -68 161 -41 45 -53 47 -109 18z"/>
<path d="M1856 1027 c-30 -8 -36 -14 -42 -44 -12 -65 2 -151 32 -194 46 -67
85 -84 219 -95 39 -3 84 -9 101 -13 l31 -9 -13 44 c-7 24 -15 61 -18 82 -10
88 -29 136 -71 177 -59 60 -135 76 -239 52z"/>
<path d="M2543 900 c-50 -11 -94 -51 -153 -137 -30 -43 -60 -82 -67 -86 -19
-11 -16 -27 5 -27 9 0 62 -16 116 -34 107 -36 152 -38 212 -10 42 20 81 65
106 122 30 66 30 80 0 107 -57 53 -149 80 -219 65z"/>
<path d="M1885 680 c-81 -19 -135 -72 -166 -163 l-18 -52 26 -27 c37 -38 107
-69 162 -70 77 -2 117 17 169 83 73 91 124 160 120 164 -2 2 -16 6 -33 8 -16
3 -61 17 -100 31 -84 30 -120 36 -160 26z"/>
<path d="M2300 564 c5 -16 16 -67 26 -114 19 -101 32 -127 78 -167 47 -42 97
-57 170 -50 88 8 94 12 102 64 14 96 -17 188 -80 231 -42 29 -83 40 -167 46
-36 2 -82 7 -102 11 l-37 7 10 -28z"/>
<path d="M2195 537 c-17 -18 -56 -54 -87 -80 -31 -27 -65 -67 -76 -90 -37 -78
-15 -175 57 -255 25 -29 35 -33 60 -27 49 10 120 62 149 109 45 71 43 124 -13
244 -25 54 -45 104 -45 110 0 23 -16 19 -45 -11z"/>
</g>
</svg>
