<?xml version="1.0" standalone="no"?>
<!DOCTYPE svg PUBLIC "-//W3C//DTD SVG 20010904//EN"
 "http://www.w3.org/TR/2001/REC-SVG-20010904/DTD/svg10.dtd">
<svg version="1.0" xmlns="http://www.w3.org/2000/svg"
 width="289.000000pt" height="289.000000pt" viewBox="0 0 289.000000 289.000000"
 preserveAspectRatio="xMidYMid meet">
<metadata>
Created by potrace 1.11, written by Peter Selinger 2001-2013
</metadata>
<g transform="translate(0.000000,289.000000) scale(0.100000,-0.100000)"
fill="#000000" stroke="none">
<path d="M2774 2871 c-23 -10 -45 -24 -48 -30 -16 -24 -150 -124 -204 -151
-176 -87 -396 -80 -882 29 -307 68 -404 82 -547 80 -274 -4 -483 -95 -706
-308 -94 -90 -125 -135 -106 -157 28 -34 119 1 286 110 216 141 277 162 437
152 142 -8 261 -29 486 -86 107 -26 223 -54 258 -60 34 -7 62 -15 62 -17 0 -2
-32 -52 -71 -111 -91 -137 -218 -394 -294 -592 -32 -85 -62 -160 -67 -166 -11
-15 -138 -8 -205 11 -93 27 -147 15 -240 -54 -144 -106 -73 -154 246 -166 69
-3 126 -7 127 -8 2 -2 -17 -70 -41 -152 -158 -541 -329 -848 -525 -942 -67
-33 -175 -40 -244 -17 -116 40 -207 190 -215 356 -3 68 -121 31 -206 -64 -42
-47 -45 -54 -45 -107 0 -31 7 -84 15 -119 48 -204 184 -304 401 -297 153 5
280 53 407 154 249 198 431 508 607 1036 l57 170 170 5 c167 5 170 5 214 34
70 47 127 120 116 149 -3 8 -19 17 -36 20 -36 7 -346 0 -373 -9 -11 -3 -18 0
-18 8 0 34 161 429 238 582 67 134 132 249 144 257 5 3 40 7 76 8 202 5 449
79 594 179 109 75 228 204 228 248 0 17 -8 27 -26 34 -30 12 -21 13 -70 -9z"/>
<path d="M2244 920 c-119 -54 -143 -136 -80 -272 20 -41 36 -81 36 -88 0 -6
19 6 43 28 23 23 54 50 68 61 80 62 77 189 -5 268 -23 21 -24 21 -62 3z"/>
<path d="M1900 807 c-32 -11 -35 -16 -40 -57 -10 -87 39 -171 110 -189 19 -5
70 -12 112 -15 l76 -7 -9 33 c-5 18 -16 62 -24 98 -9 36 -22 74 -30 86 -30 46
-130 72 -195 51z"/>
<path d="M2414 704 c-22 -7 -47 -24 -57 -36 -10 -13 -27 -33 -38 -46 -10 -12
-19 -26 -19 -30 0 -4 -13 -22 -29 -39 l-28 -31 81 -26 c117 -36 134 -38 180
-17 52 23 72 46 96 109 l19 49 -22 20 c-52 47 -126 66 -183 47z"/>
<path d="M1875 524 c-36 -19 -79 -76 -93 -125 -9 -34 -8 -37 26 -60 52 -36 82
-46 129 -43 60 4 93 27 143 101 24 35 50 69 58 75 11 10 -4 18 -75 40 -99 31
-144 34 -188 12z"/>
<path d="M2240 446 c5 -14 12 -47 15 -73 4 -27 17 -70 30 -98 19 -40 33 -54
67 -69 51 -21 154 -19 169 5 5 8 9 39 9 69 0 106 -58 163 -175 175 -33 3 -75
8 -92 11 -32 5 -32 4 -23 -20z"/>
<path d="M2145 417 c-17 -18 -42 -41 -56 -52 -37 -29 -67 -76 -72 -110 -7 -48
19 -117 57 -154 l35 -34 43 23 c74 39 108 87 108 157 0 32 -68 203 -80 202 -3
0 -19 -15 -35 -32z"/>
</g>
</svg>
